<?xml version="1.0" encoding="utf-8"?>
<!DOCTYPE svg PUBLIC "-//W3C//DTD SVG 1.0//EN" "http://www.w3.org/TR/2001/REC-SVG-20010904/DTD/svg10.dtd">
<svg version="1.0" xmlns="http://www.w3.org/2000/svg" width="548px" height="109px" viewBox="0 0 548 109" preserveAspectRatio="xMidYMid meet">
 <g fill="#1b2d5c">
  <path d="M496 102.85 c0 -0.05 2.05 -4.95 4.50 -10.80 2.50 -5.90 4.50 -11.10 4.50 -11.55 0 -0.40 -5.05 -12.10 -11.20 -25.90 -6.20 -13.80 -11.35 -25.55 -11.55 -26.10 -0.30 -1 -0.20 -1 8.10 -0.90 l8.40 0.15 6.80 17.15 c3.70 9.45 7 17.10 7.25 17.05 0.25 -0.05 3.15 -7.55 6.50 -16.70 3.30 -9.15 6.20 -16.85 6.40 -17.15 0.25 -0.40 2.95 -0.60 8.65 -0.60 7.65 0 8.25 0.05 8 0.85 -0.15 0.50 -3.10 7.85 -6.60 16.40 -5.45 13.45 -12.85 31.55 -21.25 52.25 l-2.30 5.75 -8.10 0.15 c-4.45 0.05 -8.10 0.05 -8.10 -0.05z"/>
  <path d="M73.20 101.15 c-3.65 -3.65 -14.20 -9.05 -21.45 -10.90 -6.40 -1.65 -14 -2.10 -22.80 -1.25 -6.05 0.55 -17.95 2.40 -20.80 3.30 l-1.15 0.30 0 -37.80 0 -37.80 1.30 -0.50 c2.90 -1.10 2.70 -3.60 2.70 35.25 0 19.80 0.20 35.75 0.45 35.75 0.20 0 3.40 -0.55 7.05 -1.25 10 -1.90 20 -2.55 26.50 -1.75 9 1.05 18.20 4.40 24.95 9 1.70 1.10 3.35 2.15 3.70 2.30 0.40 0.15 2.55 -0.90 4.80 -2.30 12.15 -7.55 23.20 -10.25 37 -9.05 6.20 0.50 18.40 2.60 19.60 3.30 0.25 0.20 0.45 -13.75 0.45 -35.65 l0 -35.95 1.40 0.20 c0.75 0.10 1.85 0.30 2.50 0.45 l1.10 0.20 0 37.75 c0 20.75 -0.20 37.75 -0.45 37.75 -0.20 0 -1.05 -0.20 -1.85 -0.50 -0.80 -0.25 -4.05 -0.90 -7.20 -1.45 -20.60 -3.50 -32.75 -2.45 -45.75 4.05 -4.15 2.10 -7.55 4.30 -9.80 6.30 -1.30 1.15 -1.35 1.15 -2.25 0.25z"/>
  <path d="M68.10 84.75 c-3.70 -2.40 -7.95 -4.40 -14.35 -6.55 l-5.50 -1.90 -10.25 0.05 c-7.80 0.05 -11.15 0.25 -14 0.95 -2.05 0.45 -4.60 0.95 -5.65 1.10 l-1.85 0.20 0.10 -34.40 0.15 -34.40 2.50 -0.65 c7.10 -1.85 18 -2.75 24.70 -2.10 7.55 0.80 17.50 4.40 24.65 9 l2.40 1.55 0 34.45 c0 18.95 -0.05 34.45 -0.15 34.45 -0.05 0 -1.30 -0.80 -2.75 -1.75z"/>
  <path d="M76.80 86.15 c-0.15 -0.20 -0.30 -15.60 -0.30 -34.25 0 -38.70 -0.60 -34.20 4.95 -37.20 l3.05 -1.65 0 20.70 c0 11.40 0.15 20.75 0.35 20.75 0.20 0 2.45 -2.05 4.95 -4.55 l4.60 -4.60 4.35 4.60 c2.40 2.50 4.55 4.55 4.80 4.55 0.25 0 0.45 -10.30 0.45 -23.75 l0 -23.75 4.15 0 c5.35 0 11.50 0.75 17.25 2.05 l4.60 1.05 0 34.35 c0 18.90 -0.10 34.50 -0.25 34.65 -0.15 0.15 -1.45 -0.15 -2.90 -0.60 -4.65 -1.55 -10.65 -2.10 -19.60 -1.90 -8.25 0.20 -8.65 0.25 -13.85 2.05 -5.25 1.80 -10.80 4.35 -14.45 6.65 -1 0.60 -2 1 -2.15 0.85z"/>
  <path d="M191 83 c-6.30 -0.65 -13.95 -3.35 -18.75 -6.55 -1.95 -1.35 -2.15 -1.65 -1.65 -2.40 2.70 -3.60 6.55 -8.55 6.70 -8.55 0.15 0 1.80 0.80 3.75 1.80 10.05 5.05 20.80 4.80 22.15 -0.55 0.80 -3.15 -1.45 -4.85 -7.95 -6 -5.55 -1 -12.80 -2.80 -15 -3.75 -3.35 -1.45 -7 -4.65 -8.20 -7.30 -0.90 -1.85 -1.15 -3.25 -1.10 -6.50 0 -7.70 3.10 -11.90 10.55 -14.40 11.80 -3.90 22.80 -2.60 32.25 3.75 2.05 1.40 2.25 1.65 1.65 2.45 -2.05 2.75 -6.55 8.50 -6.65 8.50 -0.10 0 -2.35 -1.05 -5.05 -2.35 -4.40 -2.15 -5.35 -2.40 -9 -2.55 -3.35 -0.15 -4.40 0 -6.15 0.85 -2.25 1.15 -3.30 3 -2.80 4.90 0.55 2.20 2.50 2.90 14.50 5.15 9.55 1.80 15.50 5.55 17 10.70 0.95 3.20 0.95 7.90 0 11.15 -0.85 2.85 -3.90 6.60 -6.85 8.50 -3.95 2.45 -12.45 3.85 -19.40 3.15z"/>
  <path d="M444.25 83 c-3.90 -0.60 -9.70 -2.45 -12.90 -4.10 -3.80 -2.05 -9.05 -7.60 -10.90 -11.60 -2.95 -6.40 -3.10 -17.55 -0.30 -23.90 2.35 -5.20 7.35 -10.60 12.05 -13 4.70 -2.40 9.75 -3.50 16.05 -3.55 5.30 0 6.45 0.15 9.60 1.30 5.70 2.10 7.55 3.20 11.15 6.80 5.50 5.50 8.20 12.70 7.90 21 l-0.15 3.80 -21.75 0.10 -21.75 0.10 -0.15 1.15 c-0.05 0.65 0.55 2.30 1.35 3.65 1.60 2.80 3.80 4.20 8.80 5.50 6.30 1.65 11.40 0.65 16.50 -3.20 1.50 -1.15 2.80 -2.05 2.95 -2.05 0.10 0 2.60 1.40 5.55 3.05 l5.35 3.10 -2.95 2.95 c-5 5.05 -10.90 7.90 -18.30 8.90 -4.30 0.55 -4.45 0.55 -8.10 0z m14.25 -35.10 c0 -0.30 -1.10 -1.65 -2.40 -2.90 -6.05 -5.85 -14.50 -4.75 -20.05 2.65 -0.65 0.80 -0.05 0.85 10.90 0.85 8.55 0 11.55 -0.15 11.55 -0.60z"/>
  <path d="M324.20 82.05 c-0.10 -0.10 -0.20 -17.15 -0.20 -37.90 l0 -37.65 7.50 0 7.50 0 0 12.80 0 12.80 1.65 -1.05 c5.85 -3.90 11.10 -5.10 17.90 -4.15 9.30 1.35 14.60 6.25 16.45 15.25 0.60 2.95 1.10 32.55 0.60 37.60 l-0.20 2.50 -7.20 0 -7.20 0 -0.05 -1.75 c0 -0.95 -0.10 -8.95 -0.15 -17.75 -0.10 -16.35 -0.30 -18.20 -2.20 -21.15 -1.35 -2.10 -4.45 -3.25 -8.70 -3.30 -3.40 0 -4.05 0.20 -5.85 1.40 -1.35 0.95 -2.50 2.40 -3.40 4.25 l-1.40 2.80 -0.15 17.80 -0.15 17.80 -7.25 -0.05 c-4 -0.05 -7.35 -0.15 -7.50 -0.25z"/>
  <path d="M396.15 82.15 l-5.15 -0.20 0 -37.70 0 -37.75 7.50 0 7.50 0 0 37.20 c0 20.45 -0.15 37.55 -0.30 38 -0.20 0.60 -0.90 0.75 -2.40 0.70 -1.10 -0.05 -4.35 -0.20 -7.15 -0.25z"/>
  <path d="M231.50 54.70 l0 -27.20 7.25 0 7.25 0 0 27.25 0 27.25 -7.25 -0.05 -7.25 0 0 -27.25z"/>
  <path d="M261.60 44.40 l0.15 -37.65 7.25 0 7.25 0 0.25 22 0.25 22 7.75 -9.50 c4.25 -5.20 8.40 -10.30 9.15 -11.35 l1.45 -1.90 8.70 0 c4.95 0 8.70 0.20 8.70 0.45 0 0.25 -0.15 0.55 -0.35 0.65 -0.40 0.15 -4.90 5.25 -15.55 17.55 -2.80 3.25 -5.10 6.05 -5.10 6.30 0 0.25 4.95 6.70 11 14.35 6.05 7.70 11 14.10 11 14.35 0 0.20 -3.70 0.35 -8.25 0.35 -9.75 0 -7.70 1.25 -16.70 -10.15 -3.40 -4.35 -6.35 -7.80 -6.55 -7.75 -0.20 0.10 -1.50 1.45 -2.90 3.10 l-2.55 2.90 -0.15 5.85 -0.15 5.80 -7.40 0.15 -7.35 0.15 0.10 -37.65z"/>
  <path d="M235.20 19.55 c-4.10 -1.85 -5.65 -6.15 -3.60 -10 1.40 -2.65 4.10 -4.20 7.10 -4.20 8 0 10.75 10.35 3.70 13.95 -2.85 1.45 -4.45 1.50 -7.20 0.25z"/>
 </g>
 <g fill="#c3e4f2">
  <path d="M446.90 50.10 c-11.20 -0.10 -13.40 -0.25 -13.40 -0.85 0 -2.60 3.45 -6.70 6.95 -8.20 5.80 -2.45 12.55 -1.65 16.75 2 2.25 2 4.40 6.15 3.50 6.85 -0.25 0.20 -6.45 0.30 -13.80 0.20z"/>
 </g>
</svg>